<?xml version="1.0" standalone="no"?>
<!DOCTYPE svg PUBLIC "-//W3C//DTD SVG 20010904//EN"
 "http://www.w3.org/TR/2001/REC-SVG-20010904/DTD/svg10.dtd">
<svg version="1.0" xmlns="http://www.w3.org/2000/svg"
 width="512.000000pt" height="512.000000pt" viewBox="0 0 512.000000 512.000000"
 preserveAspectRatio="xMidYMid meet">
<metadata>
Created by potrace 1.14, written by Peter Selinger 2001-2017
</metadata>
<g transform="translate(0.000000,512.000000) scale(0.100000,-0.100000)"
fill="#000000" stroke="none">
<path d="M2160 3818 c-18 -13 -43 -36 -54 -51 -20 -27 -21 -41 -24 -378 l-3
-349 -343 0 c-340 0 -343 0 -377 -23 -18 -12 -44 -38 -56 -56 -23 -34 -23 -36
-23 -399 0 -353 1 -365 21 -402 12 -21 38 -47 59 -59 36 -20 50 -21 378 -21
l341 0 3 -349 c3 -335 4 -351 24 -377 11 -15 33 -37 48 -48 26 -20 42 -21 397
-24 524 -4 482 -42 489 448 l5 345 345 5 c387 6 387 6 429 80 20 36 21 51 21
402 0 363 0 365 -23 399 -12 18 -38 44 -56 56 -34 23 -37 23 -377 23 l-344 0
0 341 c0 329 -1 343 -21 379 -12 21 -38 47 -59 59 -37 20 -49 21 -402 21 -362
0 -365 0 -398 -22z"/>
</g>
</svg>
